<svg width="414" height="506" viewBox="0 0 414 506" fill="none" xmlns="http://www.w3.org/2000/svg">
<path d="M188.6 0.546753C151.021 4.07596 116.723 16.9004 86.054 38.8709C70.8934 49.707 55.7327 64.3706 43.9024 79.5312C23.274 105.975 9.10752 137.987 3.44092 170.793C0.508203 187.843 0.458496 188.887 0.458496 241.328C0.458496 290.09 0.707031 298.839 2.49648 316.137C3.3415 324.587 5.08125 333.534 6.67188 337.759C8.21279 341.786 11.3443 344.967 13.78 344.967C14.9232 344.967 16.0665 344.519 16.9612 343.774C18.9992 342.034 21.4349 336.467 22.9261 330.204C24.9144 321.455 25.1132 321.008 26.5547 319.517C30.6804 315.441 36.7446 321.008 39.8762 331.794C41.6656 338.058 41.9639 340.493 42.4609 353.367C43.2563 374.443 44.648 387.765 46.9843 396.861C48.8234 404.068 51.6567 408.095 54.8877 408.095C57.2239 408.095 58.6157 407.051 60.0572 404.218C62.5923 399.197 64.1332 392.039 65.5747 378.519C66.0221 374.393 66.5688 370.268 66.8174 369.323C67.563 366.689 69.1039 364.402 70.4957 364.054C73.329 363.358 77.2559 367.583 79.2441 373.499C81.3318 379.762 81.7295 383.838 82.2266 403.373C83.8669 471.024 86.9984 497.915 93.9574 504.029C96.0451 505.819 97.5363 505.918 99.2761 504.328C100.966 502.737 101.861 500.898 103.302 495.977C107.279 482.108 109.367 456.261 110.858 401.981C111.007 395.519 111.255 390.2 111.355 390.2C111.504 390.2 113.542 391.194 115.928 392.387C130.691 399.794 152.065 406.951 168.071 409.884L172.594 410.679L172.892 415.998C174.433 442.492 175.924 453.477 178.956 461.778C182.088 470.179 187.655 470.427 191.681 462.275C193.968 457.653 195.26 452.632 196.553 443.635C198.491 429.866 198.64 425.84 198.988 371.063C199.237 332.938 199.485 316.584 199.883 315.888C200.877 314.099 202.319 313.154 205.251 312.409C213.702 310.172 217.976 304.654 215.69 298.839C214.199 295.111 208.284 290.587 202.766 288.947C201.971 288.748 200.778 287.804 200.181 286.859C199.038 285.169 199.038 285.169 199.038 265.336C199.038 243.664 198.988 243.316 196.155 241.874C195.26 241.427 192.328 241.129 186.86 240.98C179.801 240.781 178.559 240.632 175.875 239.538C174.085 238.793 166.53 233.772 156.986 227.062C148.287 220.898 140.583 215.53 139.887 215.082L138.594 214.237L137.998 222.588C137.65 227.161 137.053 232.529 136.606 234.567C134.121 246.398 128.752 247.094 126.267 236.009C125.124 231.138 124.478 224.328 124.03 213.044L123.583 202.705L117.22 196.293C113.691 192.764 110.709 189.881 110.56 189.881C110.41 189.881 109.963 201.363 109.665 215.331C108.969 243.714 108.372 256.389 107.329 266.678C106.136 278.856 104.446 284.921 102.308 285.219C98.779 285.716 96.3434 272.742 94.6533 244.31C94.4048 239.936 93.9077 221.693 93.5598 203.799L92.9633 171.241L83.9166 152.352C78.8962 141.963 74.4723 132.072 74.0746 130.431C72.6828 124.963 72.6331 125.063 79.7412 115.619C83.3201 110.896 86.2031 106.82 86.2031 106.572C86.2031 104.882 80.8348 102.098 74.4226 100.408C69.8992 99.2152 67.9109 99.1655 64.6303 100.16C63.2882 100.557 61.9958 100.905 61.7473 100.905C61.4987 100.905 62.3438 99.5135 63.6361 97.7737C77.1564 80.078 95.2001 63.8238 114.039 52.4409C136.258 38.9703 162.702 30.023 187.506 27.4383L191.582 27.0406V39.7159C191.582 46.7246 191.831 53.2362 192.079 54.2303C193.123 58.0081 195.757 60.5432 205.351 67.0548C211.067 70.9816 213.553 71.7272 221.406 71.9261C225.085 72.0255 228.564 72.2243 229.161 72.3237C230.9 72.7214 232.839 75.0079 232.839 76.7477C232.839 78.4377 230.453 83.9055 229.31 84.8499C228.912 85.1481 224.14 86.3411 218.672 87.4844C213.205 88.6773 208.433 89.92 208.035 90.2679C206.494 91.7095 210.322 97.9228 215.093 101.701C217.181 103.341 217.231 103.391 222.301 103.391C231.646 103.391 232.342 104.285 232.342 115.917C232.342 125.212 232.69 126.455 236.169 128.89C237.71 130.034 238.903 130.382 242.035 130.68C245.514 130.978 246.011 131.177 247.055 132.469C247.701 133.265 248.447 134.955 248.695 136.148C249.292 138.981 248.497 140.671 245.912 141.963C244.222 142.808 242.581 142.908 230.254 143.057L216.436 143.206V151.308C216.436 157.372 216.286 159.56 215.789 159.957C215.441 160.255 212.608 161.647 209.477 163.039C203.711 165.574 200.281 167.612 199.883 168.706C199.734 169.054 199.386 174.571 199.038 180.983C198.392 194.156 197.895 198.182 196.503 200.866C194.217 205.389 190.588 204.196 188.898 198.381C188.301 196.293 188.103 193.36 188.103 185.656C188.103 173.527 188.003 173.328 182.138 170.346C175.477 167.016 167.176 166.767 161.31 169.7C157.036 171.887 151.866 178.2 149.977 183.618C148.685 187.246 148.735 196.044 150.027 199.971C151.966 205.936 153.159 207.229 166.231 217.816C173.538 223.731 179.702 228.304 181.641 229.298L184.872 230.889L208.731 231.138C231.596 231.386 232.69 231.436 235.573 232.48C240.543 234.269 293.581 261.857 295.321 263.547C297.806 265.933 298.651 268.716 298.303 273.041C297.756 279.602 296.812 281.541 286.075 298.491C280.508 307.239 275.637 314.944 275.239 315.64C274.792 316.336 273.599 317.976 272.555 319.368C270.815 321.654 270.666 322.201 270.169 326.824C269.871 329.558 269.423 337.958 269.125 345.464C268.379 365.695 267.336 375.04 265.447 378.718C262.912 383.589 259.532 381.054 258.189 373.3C257.891 371.51 257.494 362.265 257.344 352.771C257.195 343.277 256.897 335.423 256.748 335.274C256.549 335.174 247.801 343.028 237.312 352.771C226.775 362.464 217.131 371.361 215.839 372.504L213.453 374.542V394.077V413.612L215.093 413.364C215.938 413.215 219.269 412.966 222.4 412.817C231.596 412.32 243.128 410.63 253.219 408.343C284.037 401.285 311.823 387.864 336.826 367.931C345.376 361.122 361.878 344.619 368.738 336.02C375.25 327.818 383.501 315.54 388.173 307.04L391.653 300.728L391.802 303.064C392.448 315.192 394.188 328.514 395.928 335.025C398.86 345.911 404.577 346.806 408.205 336.964C412.53 325.134 413.922 301.771 413.971 238.345C414.021 189.682 413.971 187.942 411.039 171.092C406.217 143.305 396.077 117.507 380.618 93.7474C360.586 63.0285 332.651 38.0259 300.043 21.6722C278.868 11.0847 258.189 4.82156 232.342 1.19296C225.631 0.248535 196.155 -0.198853 188.6 0.546753ZM253.219 32.3593C273.748 37.9265 293.68 47.2217 310.432 58.9525L315.999 62.8794L312.569 66.0606C307.747 70.5343 279.762 92.8527 277.774 93.8469C275.885 94.7416 275.835 94.9901 275.338 102.148C274.692 111.244 272.207 120.738 269.771 123.174C268.678 124.268 268.479 124.317 267.485 123.621C265.099 122.08 262.862 115.171 261.619 105.627C261.321 103.142 260.923 93.9463 260.725 85.1481L260.426 69.0928L258.786 67.5021L257.195 65.8618L250.584 65.6133C239.848 65.1659 240.295 66.0109 240.295 45.3328V29.4763L244.918 30.4207C247.403 30.9178 251.181 31.8125 253.219 32.3593ZM374.504 138.533C379.226 149.966 383.054 162.393 384.893 172.086C387.179 184.115 389.764 208.223 388.919 209.764C387.975 211.553 380.817 217.667 377.834 219.258C375.299 220.6 374.206 220.898 371.671 220.948C368.986 220.948 368.39 220.749 366.7 219.407C361.381 215.132 358.598 203.699 358.598 185.904C358.598 173.428 360.188 163.685 364.165 151.159C366.6 143.454 370.975 132.221 371.521 132.221C371.72 132.221 373.062 135.054 374.504 138.533Z" fill="#404572"/>
<path d="M399.109 360.774C396.226 362.563 393.393 369.423 393.393 374.841C393.393 378.32 395.381 382.496 397.817 384.086C399.805 385.428 403.185 385.627 405.223 384.534C408.006 383.092 410.343 379.662 410.989 376.183C411.436 373.598 410.044 367.981 408.156 364.8C405.471 360.326 402.24 358.885 399.109 360.774Z" fill="#404572"/>
</svg>
