<?xml version="1.0" standalone="no"?>
<!DOCTYPE svg PUBLIC "-//W3C//DTD SVG 20010904//EN"
 "http://www.w3.org/TR/2001/REC-SVG-20010904/DTD/svg10.dtd">
<svg version="1.0" xmlns="http://www.w3.org/2000/svg"
 width="1024.000000pt" height="1024.000000pt" viewBox="0 0 1024.000000 1024.000000"
 preserveAspectRatio="xMidYMid meet">
<metadata>
Created by potrace 1.16, written by Peter Selinger 2001-2019
</metadata>
<g transform="translate(0.000000,1024.000000) scale(0.100000,-0.100000)"
fill="#000000" stroke="none">
<path d="M4780 10229 c-756 -71 -1446 -329 -2063 -771 -305 -218 -610 -513
-848 -818 -415 -532 -700 -1176 -814 -1836 -59 -343 -60 -364 -60 -1419 0
-981 5 -1157 41 -1505 17 -170 52 -350 84 -435 31 -81 94 -145 143 -145 23 0
46 9 64 24 41 35 90 147 120 273 40 176 44 185 73 215 83 82 205 -30 268 -247
36 -126 42 -175 52 -434 16 -424 44 -692 91 -875 37 -145 94 -226 159 -226 47
0 75 21 104 78 51 101 82 245 111 517 9 83 20 166 25 185 15 53 46 99 74 106
57 14 136 -71 176 -190 42 -126 50 -208 60 -601 33 -1361 96 -1902 236 -2025
42 -36 72 -38 107 -6 34 32 52 69 81 168 80 279 122 799 152 1891 3 130 8 237
10 237 3 0 44 -20 92 -44 297 -149 727 -293 1049 -352 l91 -16 6 -107 c31
-533 61 -754 122 -921 63 -169 175 -174 256 -10 46 93 72 194 98 375 39 277
42 358 49 1460 5 767 10 1096 18 1110 20 36 49 55 108 70 170 45 256 156 210
273 -30 75 -149 166 -260 199 -16 4 -40 23 -52 42 -23 34 -23 34 -23 433 0
436 -1 443 -58 472 -18 9 -77 15 -187 18 -142 4 -167 7 -221 29 -36 15 -188
116 -380 251 -175 124 -330 232 -344 241 l-26 17 -12 -168 c-7 -92 -19 -200
-28 -241 -50 -238 -158 -252 -208 -29 -23 98 -36 235 -45 462 l-9 208 -128
129 c-71 71 -131 129 -134 129 -3 0 -12 -231 -18 -512 -14 -571 -26 -826 -47
-1033 -24 -245 -58 -367 -101 -373 -71 -10 -120 251 -154 823 -5 88 -15 455
-22 815 l-12 655 -182 380 c-101 209 -190 408 -198 441 -28 110 -29 108 114
298 72 95 130 177 130 182 0 34 -108 90 -237 124 -91 24 -131 25 -197 5 -27
-8 -53 -15 -58 -15 -5 0 12 28 38 63 272 356 635 683 1014 912 447 271 979
451 1478 503 l82 8 0 -255 c0 -141 5 -272 10 -292 21 -76 74 -127 267 -258
115 -79 165 -94 323 -98 74 -2 144 -6 156 -8 35 -8 74 -54 74 -89 0 -34 -48
-144 -71 -163 -8 -6 -104 -30 -214 -53 -110 -24 -206 -49 -214 -56 -31 -29 46
-154 142 -230 42 -33 43 -34 145 -34 188 0 202 -18 202 -252 0 -187 7 -212 77
-261 31 -23 55 -30 118 -36 70 -6 80 -10 101 -36 13 -16 28 -50 33 -74 12 -57
-4 -91 -56 -117 -34 -17 -67 -19 -315 -22 l-278 -3 0 -163 c0 -122 -3 -166
-13 -174 -7 -6 -64 -34 -127 -62 -116 -51 -185 -92 -193 -114 -3 -7 -10 -118
-17 -247 -13 -265 -23 -346 -51 -400 -46 -91 -119 -67 -153 50 -12 42 -16 101
-16 256 0 244 -2 248 -120 308 -134 67 -301 72 -419 13 -86 -44 -190 -171
-228 -280 -26 -73 -25 -250 1 -329 39 -120 63 -146 326 -359 147 -119 271
-211 310 -231 l65 -32 480 -5 c460 -5 482 -6 540 -27 100 -36 1167 -591 1202
-625 50 -48 67 -104 60 -191 -11 -132 -30 -171 -246 -512 -112 -176 -210 -331
-218 -345 -9 -14 -33 -47 -54 -75 -35 -46 -38 -57 -48 -150 -6 -55 -15 -224
-21 -375 -15 -407 -36 -595 -74 -669 -51 -98 -119 -47 -146 109 -6 36 -14 222
-17 413 -3 191 -9 349 -12 352 -4 2 -180 -156 -391 -352 -212 -195 -406 -374
-432 -397 l-48 -41 0 -393 0 -393 33 5 c17 3 84 8 147 11 185 10 417 44 620
90 620 142 1179 412 1682 813 172 137 504 469 642 642 131 165 297 412 391
583 l70 127 3 -47 c13 -244 48 -512 83 -643 59 -219 174 -237 247 -39 87 238
115 708 116 1984 1 979 0 1014 -59 1353 -97 559 -301 1078 -612 1556 -403 618
-965 1121 -1621 1450 -426 213 -842 339 -1362 412 -135 19 -728 28 -880 13z
m1300 -640 c413 -112 814 -299 1151 -535 l112 -79 -69 -64 c-97 -90 -660 -539
-700 -559 -38 -18 -39 -23 -49 -167 -13 -183 -63 -374 -112 -423 -22 -22 -26
-23 -46 -9 -48 31 -93 170 -118 362 -6 50 -14 235 -18 412 l-6 323 -33 32 -32
33 -133 5 c-216 9 -207 -8 -207 408 l0 319 93 -19 c50 -10 126 -28 167 -39z
m2440 -2136 c95 -230 172 -480 209 -675 46 -242 98 -727 81 -758 -19 -36 -163
-159 -223 -191 -51 -27 -73 -33 -124 -34 -54 0 -66 4 -100 31 -107 86 -163
316 -163 674 0 251 32 447 112 699 49 155 137 381 148 381 4 0 31 -57 60 -127z"/>
<path d="M9015 2982 c-58 -36 -115 -174 -115 -283 0 -70 40 -154 89 -186 40
-27 108 -31 149 -9 56 29 103 98 116 168 9 52 -19 165 -57 229 -54 90 -119
119 -182 81z"/>
</g>
</svg>
