<svg width="726" height="331" viewBox="0 0 726 331" fill="none" xmlns="http://www.w3.org/2000/svg">
<path d="M198.431 123.93L166.016 285.785L42.0529 176.785L198.431 123.93Z" fill="#404572"/>
<path d="M601.877 36.1315L700.943 83.9083L610.034 145.814L601.877 36.1315Z" fill="#404572"/>
<path d="M375.868 63.9129L412.838 111.554L469.572 91.1146L435.687 140.997L472.658 188.638L414.746 171.827L380.861 221.709L378.954 161.436L321.042 144.625L377.775 124.186L375.868 63.9129Z" fill="#404572"/>
<path d="M243.916 56.9372L220.397 68.0048L223.655 93.7934L205.861 74.8449L182.341 85.9125L194.863 63.1341L177.07 44.1857L202.603 49.0563L215.125 26.2779L218.383 52.0665L243.916 56.9372Z" fill="#404572"/>
</svg>
